<svg width="266" height="272" viewBox="0 0 266 272" fill="none" xmlns="http://www.w3.org/2000/svg">
<rect x="36" y="272" width="50" height="82" transform="rotate(-135 36 272)" fill="#200324"/>
<circle cx="143" cy="123" r="123" fill="#200324"/>
<rect x="55" y="238" width="30" height="56" transform="rotate(-135 55 238)" fill="#3C9EFF"/>
<path fill-rule="evenodd" clip-rule="evenodd" d="M143 200C164.519 200 184.003 191.286 198.115 177.193L204.88 183.967C199.25 189.307 192.904 193.908 186 197.613V208.8C195.613 204.295 204.366 198.273 211.948 191.046L219.313 198.422C199.773 217.934 172.796 230 143 230C83.3532 230 35 181.647 35 122C35 62.3532 83.3532 14 143 14C173.304 14 200.693 26.4811 220.307 46.5832L213.965 52.934C205.934 44.8221 196.477 38.1103 186 33.2001V44.3867C193.743 48.5421 200.783 53.8239 206.899 60.0104L199.106 67.8142C184.922 53.1309 165.028 44 143 44C99.9218 44 65 78.9218 65 122C65 165.078 99.9218 200 143 200Z" fill="#3C9EFF"/>
<rect x="37" y="255" width="30" height="16" transform="rotate(-135 37 255)" fill="#3C9EFF"/>
<rect x="188" y="215" width="21" height="16" transform="rotate(-125.189 188 215)" fill="#3C9EFF"/>
<rect x="200" y="35" width="21" height="16" transform="rotate(125.822 200 35)" fill="#3C9EFF"/>
<path fill-rule="evenodd" clip-rule="evenodd" d="M236.984 87.5911L258 109L242.663 124.624L257.742 139.986L236.727 161.395L201 125L201.626 124.362L201.258 123.986L236.984 87.5911Z" fill="#FF8A3C"/>
<path fill-rule="evenodd" clip-rule="evenodd" d="M194.719 145.106C186.158 166.226 165.704 181 142 181C110.659 181 85 155.173 85 123C85 90.8273 110.659 65 142 65C166.036 65 186.73 80.1904 195.071 101.784L202.649 94.0639C191.938 70.9787 168.807 55 142 55C104.997 55 75 85.4446 75 123C75 160.555 104.997 191 142 191C168.48 191 191.372 175.409 202.251 152.779L194.719 145.106Z" fill="white"/>
</svg>
