<?xml version="1.0" encoding="UTF-8"?>
<svg xmlns="http://www.w3.org/2000/svg" version="1.1" viewBox="0 0 704 359">
  <defs>
    <style>
      .cls-1 {
        fill: #fb8b3e;
      }

      .cls-2 {
        fill: #f6fafe;
      }

      .cls-3 {
        fill: #f5fafe;
      }

      .cls-4 {
        fill: #3a9bfe;
      }

      .cls-5 {
        fill: #edf6fe;
      }

      .cls-6 {
        fill: #f8fbfe;
      }

      .cls-7 {
        fill: #f9fcfe;
      }

      .cls-8 {
        fill: #fbfdfe;
      }

      .cls-9 {
        fill: #132d46;
      }
    </style>
  </defs>
  <!-- Generator: Adobe Illustrator 28.7.1, SVG Export Plug-In . SVG Version: 1.2.0 Build 142)  -->
  <g>
    <g id="Layer_1">
      <path class="cls-9" d="M0,0h704v358.9H0V0Z"/>
      <path class="cls-4" d="M203.8,33.1h15.8l10,1,10.7,2.1,9.6,2.8,9.3,3.4,7.6,3.4,7.9,4.5,6.9,4.5,5.5,4.1,3.8,3.1,3.4,3.1,4.1,3.8-.3,1.4-6.2,6.2-1.4-.3-4.8-4.5-3.4-2.8-5.5-4.1-4.8-3.1-1-.3-.7,1.7-4.1,5.5-.7,1,.3,1.4,5.2,3.4,4.5,3.4,4.8,4.1,2.8,2.8-.7,1.4-7.2,7.2-1.4-.7-3.4-3.1-4.8-3.8-5.2-3.8-5.2-3.1-6.5-3.4-8.6-3.4-6.9-2.1-8.6-1.7-6.2-.7h-14.1l-9.6,1.4-9.6,2.4-8.9,3.4-5.8,2.8-5.8,3.4-5.8,4.1-3.4,2.8-4.8,4.1-2.8,2.8-2.4,2.8-3.8,4.5-6.2,9.3-3.4,6.5-3.4,8.2-2.4,7.9-1.7,8.2-.7,5.8-.3,5.2v5.8l.7,7.6,1,6.2,2.1,8.6,2.8,7.6,1.7,4.1,3.4,6.5,3.4,5.5,3.4,4.8,4.1,4.8,4.1,4.5,4.8,4.1,5.2,4.1,5.8,3.8,6.2,3.4,5.8,2.8,6.5,2.4,9.3,2.4,8.9,1.4,3.8.3h9.6l7.6-.7,7.6-1.4,6.5-1.7,6.9-2.4,6.9-3.1,5.8-3.1,5.2-3.4,4.1-3.1,4.8-4.1,1.7-1.4.7-1,1.4.3,6.9,6.9-.3,1-2.8,2.4-4.8,4.1-4.8,3.4-.7.3.3,1.4,4.5,6.5,1.4,1.4,3.8-2.4,4.8-3.8,4.1-3.8,2.8-2.1,2.4,2.1,5.5,5.5-.3,1.4-3.1,3.1-2.8,2.4-3.8,3.1-5.5,4.1-6.9,4.5-5.8,3.4-7.6,3.8-9.6,3.8-8.9,2.8-8.9,2.1-8.9,1.4-8.2.7h-11.3l-8.9-.7-8.9-1.4-10.3-2.4-11.3-3.8-9.3-4.1-6.5-3.4-6.9-4.1-3.4-2.4-1.4.3-30.9,30.9-1.4-.3v-.7l-1.4-.7-21-21-.3-1.4,2.8-2.4,28.2-28.2-.7-1.7-4.5-6.2-3.8-5.8-3.1-5.5-2.8-5.5-3.4-7.9-2.4-6.9-2.4-8.2-1.7-8.2-1.4-11.3-.3-5.8v-7.9l1-12,1.7-9.6,2.1-8.2,3.1-9.3,3.8-8.9,4.5-8.6,5.2-8.2,4.1-5.5,4.5-5.5,4.1-4.5,6.9-6.9,3.8-3.1,5.2-4.1,6.5-4.5,5.2-3.1,6.2-3.4,7.6-3.4,8.2-3.1,9.3-2.8,10-2.1,12.4-1.4Z"/>
      <path class="cls-8" d="M204.5,79.8h12.4l7.9,1,8.6,2.1,8.2,3.1,7.9,4.1,6.2,4.1,4.8,3.8,8.6,8.6,4.5,5.8,4.1,6.5,2.1,4.1-.7,1.4-6.9,6.9-.3.7h-.7l-2.8-5.5-2.8-5.2-3.4-4.8-3.1-3.8-3.1-3.4-7.6-6.2-6.2-3.8-7.9-3.8-6.2-2.1-6.2-1.4-4.8-.7h-12.7l-6.9,1-8.6,2.4-7.2,3.1-6.5,3.8-5.5,4.1-3.4,3.1-1.7,1.4-2.4,2.8-4.1,5.2-3.8,6.2-2.8,5.5-2.8,7.2-1.7,6.9-1,7.9v9.6l1,7.9,2.1,7.9,2.8,6.9,3.8,7.2,3.4,4.8,3.1,3.8,3.8,4.1,3.4,3.1,5.2,3.8,7.6,4.5,6.9,2.8,6.9,2.1,7.9,1.4,3.8.3h6.9l8.2-1,7.2-1.7,7.2-2.8,7.9-4.1,4.8-3.4,3.8-3.1,4.1-3.8,3.1-3.4,4.1-5.8,3.4-5.8,2.4-4.8,2.4,2.1,6.2,6.2-2.8,5.5-3.4,5.5-3.8,4.8-4.1,4.5-4.1,4.1-4.8,3.8-3.8,2.8-5.8,3.4-6.5,3.1-6.9,2.4-6.5,1.7-8.6,1.4-9.3.3-8.2-.7-5.8-1-7.6-2.1-6.5-2.4-5.8-2.8-6.2-3.8-4.8-3.4-4.8-4.1-5.2-5.2-3.1-3.8-3.8-5.2-4.5-7.6-2.8-6.2-2.8-8.2-1.7-7.6-1-8.6v-8.9l1-8.9,1.7-7.9,2.8-7.9,4.1-8.6,3.4-5.5,4.1-5.5,3.8-4.5,4.5-4.5,4.8-3.8,3.8-2.8,4.5-2.8,7.2-3.8,7.2-2.8,7.9-2.1,9.3-1.4Z"/>
      <path class="cls-1" d="M318,116.3l1.4.7,22.7,22.7-.3,1.4-16.2,16.2,2.1,2.4,14.4,14.4-.3,1.4-22.7,22.7-1.7-.3-40.2-40.2,2.1-2.4,38.8-38.8Z"/>
      <path class="cls-7" d="M598.8,150.3h24.4l4.8.3,2.1,1.7.7,1.4v28.5l-1.4,2.4-2.4,1h-29.6l-2.1-1-1.7-2.1-.3-2.1v-25.4l1-2.8,1.7-1.4,2.8-.7Z"/>
      <path class="cls-6" d="M506.3,150.3h24.8l4.5.3,2.4,2.1.7,1.7v15.1l-.3.3h-26.5l.3,10.7.3.7h14.8l.3-6.2h10.7v7.2l-1,1.7-1.4,1.4-1.4.3h-29.9l-2.1-1-1.7-2.1v-28.9l1.4-2.1,1.7-1,2.4-.3Z"/>
      <path class="cls-8" d="M453.4,150.3l10.7.3.3.3.3,29.9.3.3h12.7l.7-.3.3-4.1.3-26.1,1.4-.3,9.6.3v35.1h-11l-.3-1.4-1.7,1.4h-20.3l-2.4-1.4-1.4-2.8v-30.9l.3-.3Z"/>
      <path class="cls-2" d="M390.2,150.3h23.4l4.5.3,2.1,1.4,1,2.1.3,2.4v5.8l-.3.3h-10.7l-.3-.3-.3-7.2h-13.4v25.8l.3.3h13.4v-7.2l.3-.3h10.7l.3.3v5.8l-.7,3.4-1.4,1.7-2.1.7h-28.5l-2.1-1-1.7-2.1-.3-1.7v-24.4l.7-3.4,1.4-1.7,1.4-.7,2.1-.3Z"/>
      <path class="cls-4" d="M76,271.6l2.4,2.1,5.5,5.2,2.4,2.4v.7h.7v.7l1,.3v.7l1,.3v.7l1,.3v.7l1,.3v.7h.7l2.4,2.8,4.8,4.5.7,1.7-11.7,11.7-1.4-.7-22.7-22.7,2.1-2.4,10-10Z"/>
      <path class="cls-8" d="M431.1,136.9h10.7l.3.3v48.5h-11l-.3-.7v-47.8l.3-.3Z"/>
      <path class="cls-7" d="M642.1,150.3h6.9l4.1.3v40.2l-.7,2.8-1.7,1.7-1.7.7h-15.1l-.3-.3v-3.8l7.6-.3.3-1.4.3-39.5.3-.3Z"/>
      <path class="cls-9" d="M605,154.8h14.4l.3.7v25.1l-.7,1h-13.8l-.7-.7v-25.8l.3-.3Z"/>
      <path class="cls-5" d="M573.4,185.7h4.8l10,.3v3.8l-1,.3h-42.6l-1-.3v-3.8l29.9-.3Z"/>
      <path class="cls-9" d="M512.2,154.8h15.1l.3.3v10.3h-15.8v-10.3l.3-.3Z"/>
      <path class="cls-3" d="M641.4,136.9h11.7l.3.3v6.9l-.3.3h-11.7v-7.6Z"/>
    </g>
  </g>
</svg>